<?xml version="1.0" encoding="UTF-8"?> <svg xmlns="http://www.w3.org/2000/svg" width="172" height="39" viewBox="0 0 172 39" fill="none"><g clip-path="url(#clip0_54628_4237)"><path d="M11.0448 7.41602H7.53613V10.8763H11.0448V7.41602Z" fill="#9FD3D4"></path><path d="M18.0622 7.41602H14.5535V10.8763H18.0622V7.41602Z" fill="#9FD3D4"></path><path d="M25.0761 7.41602H21.5674V10.8763H25.0761V7.41602Z" fill="#9FD3D4"></path><path d="M11.0448 14.3364H7.53613V17.7967H11.0448V14.3364Z" fill="#9FD3D4"></path><path d="M25.0761 14.3364H21.5674V17.7967H25.0761V14.3364Z" fill="#9FD3D4"></path><path d="M18.0622 14.3364H14.5535V17.7967H18.0622V14.3364Z" fill="white"></path><path d="M11.0448 21.2573H7.53613V24.7176H11.0448V21.2573Z" fill="#9FD3D4"></path><path d="M18.0622 21.2573H14.5535V24.7176H18.0622V21.2573Z" fill="#9FD3D4"></path><path d="M25.0761 21.2573H21.5674V24.7176H25.0761V21.2573Z" fill="white"></path><path d="M11.0448 28.1777H7.53613V31.638H11.0448V28.1777Z" fill="#9FD3D4"></path><path d="M25.0761 28.1777H21.5674V31.638H25.0761V28.1777Z" fill="#9FD3D4"></path><path d="M11.0448 35.0981H7.53613V38.5584H11.0448V35.0981Z" fill="#9FD3D4"></path><path d="M18.0622 28.1777H14.5535V38.5585H18.0622V28.1777Z" fill="white"></path><path d="M25.0761 35.0981H21.5674V38.5584H25.0761V35.0981Z" fill="#9FD3D4"></path><path d="M0 0V38.5583H3.96621V3.91144H7.13015H25.5049H28.6688V38.5583H32.6318V0H0Z" fill="white"></path><mask id="mask0_54628_4237" style="mask-type:luminance" maskUnits="userSpaceOnUse" x="0" y="0" width="172" height="39"><path d="M172 0H0V39H172V0Z" fill="white"></path></mask><g mask="url(#mask0_54628_4237)"><path d="M160.497 27.9489V22.2485H163.777C165.685 22.2485 166.935 23.4814 166.935 25.1273C166.935 26.7732 165.714 27.9489 163.716 27.9489H160.497ZM167.054 30.8562C169.735 29.8585 171.375 27.7106 171.375 25.0065C171.375 21.3334 168.513 18.6008 164.222 18.6008H156.086V38.587H160.497V31.4441H162.791L167.022 38.587H172V38.498L167.054 30.8562ZM144.433 34.8249V30.297H152.004V26.6525H144.433V22.3597H153.106V18.5976H140.022V38.5838H153.374V34.8217H144.433V34.8249ZM133.617 18.6008L129.296 28.0061C128.909 28.8576 128.491 29.8585 128.133 30.8848C127.804 29.9157 127.447 29.0324 127.002 28.0347L122.649 18.6008H117.79V18.6898L127.447 38.6759H128.758L138.414 18.6612V18.604H133.617V18.6008ZM107.419 35.0886C103.575 35.0886 101.22 32.2066 101.22 28.5939C101.22 24.9811 103.575 22.0992 107.419 22.0992C111.263 22.0992 113.618 24.8604 113.618 28.5939C113.618 32.3274 111.263 35.0886 107.419 35.0886ZM107.419 39C113.798 39 118.148 34.5039 118.148 28.5971C118.148 22.6902 113.798 18.1941 107.419 18.1941C101.04 18.1941 96.69 22.544 96.69 28.5971C96.69 34.6501 101.072 39 107.419 39ZM88.2259 39C91.6219 39 94.2767 37.8244 96.5095 35.4731L93.8579 32.5911C92.5176 34.1767 90.7584 35.0886 88.3451 35.0886C84.6786 35.0886 82.2363 32.3274 82.2363 28.5939C82.2363 24.8604 84.7688 22.0992 88.5256 22.0992C90.7906 22.0992 92.4596 22.8046 93.8611 24.0088L96.0359 20.9521C93.7097 19.0139 91.3867 18.1909 88.3774 18.1909C82.1494 18.1909 77.7063 22.5694 77.7063 28.5939C77.7063 34.6183 81.8497 38.9968 88.2259 38.9968" fill="white"></path><path d="M67.0357 34.8246V30.2968H74.6073V26.6522H67.0357V22.3627H75.7092V18.6006H62.6249V38.5867H75.9766V34.8246H67.0357ZM49.1249 27.9486V22.2451H52.4049C54.3123 22.2451 55.5656 23.4811 55.5656 25.1271C55.5656 26.773 54.3445 27.9486 52.3469 27.9486H49.1282H49.1249ZM55.6816 30.856C58.3655 29.8583 60.0022 27.7103 60.0022 25.0063C60.0022 21.3332 57.1411 18.6006 52.8495 18.6006H44.7141V38.5867H49.1249V31.4438H51.419L55.6526 38.5867H60.6305V38.4978L55.6816 30.856Z" fill="#9FD3D4"></path></g></g><defs><clipPath id="clip0_54628_4237"><rect width="172" height="39" fill="white"></rect></clipPath></defs></svg> 