<?xml version="1.0" encoding="UTF-8"?> <svg xmlns="http://www.w3.org/2000/svg" width="150" height="34" viewBox="0 0 150 34" fill="none"><g clip-path="url(#clip0_941_20217)"><path d="M9.63803 6.48755H6.57812V9.50417H9.63803V6.48755Z" fill="#3EA8AA"></path><path d="M15.7572 6.48755H12.6973V9.50417H15.7572V6.48755Z" fill="#3EA8AA"></path><path d="M21.8744 6.48755H18.8145V9.50417H21.8744V6.48755Z" fill="#3EA8AA"></path><path d="M9.63803 12.5208H6.57812V15.5374H9.63803V12.5208Z" fill="#3EA8AA"></path><path d="M21.8744 12.5208H18.8145V15.5374H21.8744V12.5208Z" fill="#3EA8AA"></path><path d="M15.7572 12.5208H12.6973V15.5374H15.7572V12.5208Z" fill="#003D61"></path><path d="M9.63803 18.554H6.57812V21.5706H9.63803V18.554Z" fill="#3EA8AA"></path><path d="M15.7572 18.554H12.6973V21.5706H15.7572V18.554Z" fill="#3EA8AA"></path><path d="M21.8744 18.554H18.8145V21.5706H21.8744V18.554Z" fill="#003D61"></path><path d="M9.63803 24.5872H6.57812V27.6039H9.63803V24.5872Z" fill="#3EA8AA"></path><path d="M21.8744 24.5872H18.8145V27.6039H21.8744V24.5872Z" fill="#3EA8AA"></path><path d="M9.63803 30.6205H6.57812V33.6371H9.63803V30.6205Z" fill="#3EA8AA"></path><path d="M15.7572 24.5872H12.6973V33.6371H15.7572V24.5872Z" fill="#003D61"></path><path d="M21.8744 30.6205H18.8145V33.6371H21.8744V30.6205Z" fill="#3EA8AA"></path><path d="M0.00585938 0.0221558V33.6371H3.46476V3.42936H6.22401H22.2485H25.0077V33.6371H28.4638V0.0221558H0.00585938Z" fill="#003D61"></path><path d="M139.974 24.385V19.4155H142.834C144.498 19.4155 145.591 20.4903 145.591 21.9252C145.591 23.3601 144.526 24.385 142.784 24.385H139.977H139.974ZM145.692 26.9224C148.03 26.0499 149.46 24.1801 149.46 21.8227C149.46 18.6205 146.965 16.2355 143.222 16.2355H136.127V33.6593H139.974V27.4321H141.974L145.664 33.6593H150.005V33.5817L145.692 26.9197V26.9224ZM125.967 30.3823V26.4377H132.57V23.2604H125.967V19.518H133.531V16.2382H122.12V33.662H133.764V30.3823H125.967ZM116.531 16.2382L112.763 24.4377C112.426 25.1801 112.061 26.0526 111.749 26.9501C111.463 26.1053 111.151 25.3352 110.76 24.4654L106.964 16.241H102.727V16.3186L111.148 33.7424H112.291L120.712 16.2936V16.2438H116.529L116.531 16.2382ZM93.6847 30.6122C90.3326 30.6122 88.2786 28.1025 88.2786 24.9501C88.2786 21.7978 90.3326 19.2881 93.6847 19.2881C97.0368 19.2881 99.0908 21.6953 99.0908 24.9501C99.0908 28.205 97.0368 30.6122 93.6847 30.6122ZM93.6847 34.0194C99.2454 34.0194 103.041 30.0997 103.041 24.9501C103.041 19.8006 99.2454 15.8809 93.6847 15.8809C88.1241 15.8809 84.328 19.6731 84.328 24.9501C84.328 30.2271 88.1494 34.0194 93.6847 34.0194ZM76.9466 34.0194C79.9109 34.0194 82.2234 32.9945 84.1706 30.9446L81.8581 28.4321C80.6892 29.8172 79.1551 30.6094 77.0505 30.6094C73.8529 30.6094 71.7231 28.2022 71.7231 24.9474C71.7231 21.6925 73.9316 19.2853 77.2079 19.2853C79.1832 19.2853 80.6387 19.9003 81.8609 20.9501L83.7576 18.2853C81.7289 16.5928 79.703 15.8781 77.0786 15.8781C71.6472 15.8781 67.7725 19.6953 67.7725 24.9474C67.7725 30.1994 71.3859 34.0166 76.9466 34.0166" fill="#003D61"></path><path d="M58.4665 30.3823V26.4377H65.0668V23.2604H58.4665V19.5208H66.0306V16.241H54.6198V33.6648H66.2638V30.385H58.4665V30.3823ZM42.8467 24.385V19.4127H45.7071C47.3705 19.4127 48.4635 20.4903 48.4635 21.9252C48.4635 23.3601 47.3986 24.385 45.6565 24.385H42.8495H42.8467ZM48.5647 26.9224C50.9024 26.0498 52.3326 24.18 52.3326 21.8227C52.3326 18.6205 49.8375 16.2354 46.0948 16.2354H39V33.6593H42.8467V27.4321H44.8473L48.5394 33.6593H52.8806V33.5817L48.5675 26.9197L48.5647 26.9224Z" fill="#3EA8AA"></path></g><defs><clipPath id="clip0_941_20217"><rect width="150" height="34" fill="white"></rect></clipPath></defs></svg> 